<?xml version="1.0" encoding="UTF-8"?> <svg xmlns="http://www.w3.org/2000/svg" id="Layer_2" viewBox="0 0 269.63 85.35"><defs><style>.cls-1{fill:#a7c38b;}.cls-2{fill:#bbd334;}.cls-3{fill:#dbe026;}.cls-4{fill:#828282;}</style></defs><g id="Layer_1-2"><g id="PE-logo-tagline-RGB"><g id="PS-logo-tagline-RGB"><path id="Path_2495" class="cls-3" d="M39.86,38.54V18.11h8.85v20.16c0,6.32,2.37,9.73,8.24,9.73s8.24-3.42,8.24-9.73V18.12h8.85v20.43c0,10.79-6.49,17.27-17.45,17.27s-16.75-6.49-16.75-17.27"></path><path id="Path_2496" class="cls-2" d="M74.32,55.66h-9.13V18.05h8.86l.27,37.61Z"></path><path id="Path_2497" class="cls-3" d="M120.89,18.16h8.85V55.77h-8.59l-.26-37.61Z"></path><path id="Path_2498" class="cls-2" d="M155.08,35.39v20.43h-8.85v-20.16c0-6.32-2.37-9.73-8.24-9.73s-8.25,3.41-8.25,9.73v20.16h-8.85v-20.43c0-10.79,6.49-17.27,17.45-17.27s16.74,6.49,16.74,17.27"></path><path id="Path_2499" class="cls-3" d="M180.4,35.39v20.43h-8.85v-20.16c0-6.32-2.37-9.73-8.24-9.73s-8.25,3.41-8.25,9.73v20.16h-8.85v-20.43c0-10.79,6.49-17.27,17.45-17.27s16.75,6.49,16.75,17.27"></path><path id="Path_2500" class="cls-2" d="M214.01,23.85h0c-2.08-3.41-6.53-5.57-11.18-5.57-10.4-.07-18.55,6.35-18.55,18.62s7.79,18.98,18.33,18.91c3.89-.07,9.29-2.03,11.4-6.05h4.57V23.8l-4.55,.04Zm0,13.09c0,5.4-3.47,10.79-10.4,10.79-5.84,0-10.53-4.04-10.53-10.83s4.69-10.74,10.53-10.74c6.93,0,10.4,5.4,10.4,10.79h0Z"></path><path id="Path_2501" class="cls-3" d="M223.13,55.81l-.27-37.61h-8.86V55.81h9.13Z"></path><path id="Path_2502" class="cls-3" d="M228.58,18.2h9.09V55.81h-8.83l-.27-37.61Z"></path><path id="Path_2503" class="cls-1" d="M263.02,35.39v20.43h-8.85v-20.16c0-6.32-2.37-9.73-8.24-9.73s-8.25,3.41-8.25,9.73v20.16h-8.85v-20.43c0-10.79,6.49-17.27,17.45-17.27s16.74,6.49,16.74,17.27"></path><path id="Path_2504" class="cls-2" d="M34.19,35.39v20.43h-8.85v-20.16c0-6.32-2.37-9.73-8.24-9.73s-8.26,3.41-8.26,9.73v20.16H0v-20.43c0-10.78,6.49-17.27,17.45-17.27s16.74,6.49,16.74,17.27"></path><rect id="Rectangle_909" class="cls-3" width="8.85" height="55.81"></rect><path id="Path_2505" class="cls-1" d="M98.81,48.36c3.86,.09,7.6-1.33,10.43-3.95l5.17,5.44c-3.42,3.42-8.15,5.96-15.52,5.96-12.62,0-20.78-8.15-20.78-19.2s8.59-19.2,19.64-19.2c12.54,0,19.64,9.29,19.03,22.18h-29.64c1.05,5.35,4.91,8.77,11.66,8.77m9.04-14.9c-.79-5-3.86-8.68-10-8.68-5.7,0-9.64,3.16-10.7,8.68h20.7Z"></path><path id="Path_2506" class="cls-2" d="M107.85,33.46h-20.68c-.53,2.01-.53,4.13,0,6.14h20.92c.16-2.05,.08-4.11-.24-6.14"></path><path id="Path_2507" class="cls-4" d="M70.12,76.62l-1.62,.02v4.36h-.79v-11.68h2.62c2.95,0,4.47,1.38,4.47,3.52,0,2.49-1.79,3.76-4.67,3.79m.21-6.6h-1.83v5.9l1.62-.02c2.43-.04,3.85-.91,3.85-3.06,0-1.76-1.35-2.83-3.64-2.83"></path><path id="Path_2508" class="cls-4" d="M77.6,76.71c0,2.17,1.2,3.76,3.16,3.76,.85,0,1.68-.25,2.39-.71l.17,.69c-.78,.49-1.69,.74-2.62,.73-2.34,0-3.89-1.83-3.89-4.42s1.59-4.51,3.83-4.51c1.55-.09,2.89,1.1,2.97,2.66,0,.1,0,.2,0,.29-.01,.45-.08,.91-.19,1.35l-5.83,.04v.13Zm5.19-.82c.04-.21,.06-.42,.05-.63,.1-1.17-.77-2.2-1.94-2.29-.09,0-.18,0-.27,0-1.6,.05-2.9,1.33-2.97,2.93h5.12Z"></path><path id="Path_2509" class="cls-4" d="M90.3,81.18c-2.27,.02-4.12-1.8-4.14-4.07,0-.12,0-.24,.01-.35-.15-2.33,1.62-4.35,3.96-4.5,.09,0,.17,0,.26,0,2.26-.03,4.12,1.79,4.15,4.05,0,.12,0,.25-.01,.37,.14,2.34-1.64,4.35-3.97,4.49-.08,0-.16,0-.24,0m.04-8.24c-1.93,.04-3.45,1.64-3.41,3.56,0,.07,0,.14,.01,.21,0,2.34,1.44,3.78,3.4,3.78,1.92-.03,3.45-1.62,3.41-3.53,0-.08,0-.16-.01-.24,0-2.34-1.46-3.77-3.4-3.77"></path><path id="Path_2510" class="cls-4" d="M100.81,72.34c2.2,0,3.85,1.72,3.85,4.34s-1.74,4.5-4.11,4.5c-.82-.01-1.61-.24-2.32-.65v4.83h-.77v-12.97l.77-.22v1.21c.71-.64,1.62-1.01,2.58-1.03m-2.58,7.44c.7,.47,1.53,.71,2.38,.71,1.92,0,3.27-1.52,3.27-3.81,0-2.08-1.24-3.65-3.12-3.65-.95,.03-1.85,.42-2.53,1.08v5.66Z"></path><path id="Path_2511" class="cls-4" d="M107.62,80.99v-12.6l.77-.24v12.84h-.77Z"></path><path id="Path_2512" class="cls-4" d="M112.1,76.71c0,2.17,1.2,3.76,3.16,3.76,.85,0,1.68-.25,2.39-.71l.17,.69c-.78,.49-1.69,.74-2.62,.73-2.34,0-3.89-1.83-3.89-4.42s1.59-4.51,3.83-4.51c1.55-.09,2.89,1.1,2.97,2.66,0,.1,0,.2,0,.29-.01,.45-.08,.91-.19,1.35l-5.83,.04v.13Zm5.18-.82c.04-.21,.06-.42,.05-.63,.1-1.17-.77-2.2-1.94-2.29-.09,0-.18,0-.27,0-1.6,.05-2.9,1.33-2.97,2.93h5.12Z"></path><path id="Path_2513" class="cls-4" d="M130.23,78.06c0-1.57-1.36-2.19-3.12-2.77-1.61-.54-3.27-1.25-3.27-3.14,0-1.72,1.52-3.03,3.55-3.03,1.19,0,2.35,.33,3.35,.97l-.3,.69c-.9-.62-1.96-.96-3.05-.97-1.83,0-2.8,1.1-2.8,2.28,0,1.42,1.31,1.98,3.05,2.58,1.66,.56,3.33,1.29,3.33,3.31,0,1.82-1.55,3.2-3.78,3.2-1.27,.01-2.52-.35-3.58-1.05l.3-.67c.98,.67,2.13,1.02,3.31,1.03,1.81,0,3.01-1.12,3.01-2.43"></path><path id="Path_2514" class="cls-4" d="M137.43,81.18c-2.27,.02-4.12-1.8-4.14-4.07,0-.12,0-.24,.01-.35-.15-2.34,1.63-4.35,3.97-4.5,.08,0,.16,0,.25,0,2.27-.02,4.12,1.81,4.14,4.07,0,.12,0,.23-.01,.35,.14,2.34-1.64,4.35-3.97,4.49-.08,0-.16,0-.24,0m.04-8.24c-1.93,.04-3.45,1.64-3.41,3.57,0,.07,0,.14,.01,.21,0,2.34,1.44,3.78,3.4,3.78,1.92-.04,3.45-1.62,3.41-3.54,0-.08,0-.16-.01-.23,0-2.34-1.46-3.77-3.4-3.77"></path><path id="Path_2515" class="cls-4" d="M144.59,80.99v-12.6l.77-.24v12.84h-.77Z"></path><path id="Path_2516" class="cls-4" d="M149.56,72.43v5.69c0,1.52,.63,2.36,2.02,2.36,1.14-.09,2.2-.62,2.95-1.48v-6.57h.77v8.51l-.77,.24v-1.52c-.79,.87-1.88,1.41-3.05,1.52-1.68,0-2.69-1.01-2.69-2.9v-5.86h.77Z"></path><path id="Path_2517" class="cls-4" d="M160.89,81.28c-1.59,0-2.17-.99-2.11-2.74l.15-5.33-1.18-.07,.06-.49,1.14-.15,.06-2.04h.75l-.05,2.06h3.05l-.06,.65h-3.01l-.15,5.38c-.04,1.4,.37,2.02,1.38,2.02,.61-.02,1.21-.19,1.74-.5l.15,.65c-.58,.34-1.24,.53-1.91,.54"></path><path id="Path_2518" class="cls-4" d="M165.91,70.4c-.31-.01-.56-.28-.54-.59,0,0,0,0,0,0,0-.3,.23-.55,.53-.56,0,0,0,0,0,0,.31,0,.56,.25,.56,.56,0,.32-.24,.59-.56,.6m-.37,10.6v-8.51l.77-.24v8.75h-.77Z"></path><path id="Path_2519" class="cls-4" d="M173.43,81.18c-2.27,.02-4.12-1.8-4.14-4.07,0-.12,0-.24,.01-.35-.15-2.34,1.63-4.35,3.97-4.5,.08,0,.16,0,.25,0,2.27-.02,4.12,1.81,4.14,4.07,0,.12,0,.23-.01,.35,.14,2.34-1.64,4.35-3.97,4.49-.08,0-.16,0-.24,0m.04-8.24c-1.93,.04-3.45,1.64-3.41,3.57,0,.07,0,.14,.01,.21,0,2.34,1.44,3.78,3.4,3.78,1.92-.04,3.45-1.62,3.41-3.54,0-.08,0-.16-.01-.23,0-2.34-1.46-3.77-3.4-3.77"></path><path id="Path_2520" class="cls-4" d="M186.34,80.99v-5.69c0-1.52-.63-2.36-2.02-2.36-1.14,.09-2.2,.62-2.95,1.47v6.56h-.77v-8.5l.77-.24v1.5c.79-.86,1.88-1.4,3.05-1.5,1.68,0,2.69,1.01,2.69,2.9v5.85h-.77Z"></path><path id="Path_2521" class="cls-4" d="M192.42,81.18c-.92,0-1.82-.25-2.6-.73l.24-.71c.71,.48,1.54,.75,2.39,.77,1.09,0,2.17-.58,2.17-1.66,0-1.23-1.14-1.53-2.28-1.92s-2.41-.93-2.41-2.36c0-1.53,1.22-2.32,2.69-2.32,.85,.02,1.68,.23,2.44,.62l-.26,.69c-.68-.41-1.45-.63-2.24-.65-1.16,0-1.92,.61-1.92,1.57,0,1.12,1.12,1.46,2.24,1.83,1.18,.39,2.45,.9,2.45,2.47s-1.31,2.41-2.9,2.41"></path><path id="Path_2522" class="cls-1" d="M262.92,18.62h-1.41v-.5h3.44v.5h-1.43v3.03h-.59v-3.03Zm2.7-.5h.56l1.45,1.85,1.46-1.85h.54v3.53h-.59v-2.55l-1.36,1.66h-.11l-1.33-1.71v2.6h-.6v-3.53Z"></path></g></g></g></svg> 